# xmcd
#
# Track frame offsets: 
#        150
#        21323
#        44668
#        65709
#        89299
#        108631
#        129279
#        153354
#        174112
#        200787
#
# Disc length: 2949 seconds
#
# Revision: 0
# Processed by: cddbd v1.5.2PL0 Copyright (c) Steve Scherf et al.
# Submitted via: ExactAudioCopy v1.2
#
DISCID=890b830a
DTITLE=Bao Yen - Thu tinh khong gui
DYEAR=1900
DGENRE=Country
TTITLE0=Duong xua
TTITLE1=Nua hon thuong dau
TTITLE2=Thoat ly
TTITLE3=Thu tinh khong gui
TTITLE4=Khuc thuy du
TTITLE5=Lam sao em biet
TTITLE6=Tinh yeu tra lai trang sao
TTITLE7=Mot lang tinh don
TTITLE8=Loi thu xua
TTITLE9=Ngon lua dem den
EXTD=
EXTT0=
EXTT1=
EXTT2=
EXTT3=
EXTT4=
EXTT5=
EXTT6=
EXTT7=
EXTT8=
EXTT9=
PLAYORDER=
